<svg xmlns="http://www.w3.org/2000/svg" version="1.1" xmlns:xlink="http://www.w3.org/1999/xlink" xmlns:svgjs="http://svgjs.com/svgjs" width="1440" height="560" preserveAspectRatio="none" viewBox="0 0 1440 560"><g mask="url(&quot;#SvgjsMask1012&quot;)" fill="none"><rect width="1440" height="560" x="0" y="0" fill="rgba(64, 118, 189, 1)"></rect><path d="M0,490.77C97.631,478.184,203.477,498.681,285.595,444.395C367.376,390.331,384.897,282.226,439.067,200.515C505.957,99.618,641.425,28.845,641.339,-92.211C641.254,-211.997,525.68,-297.785,438.656,-380.098C358.505,-455.91,268.894,-525.894,160.594,-546.934C57.015,-567.056,-48.718,-536.866,-144.894,-493.465C-232.182,-454.075,-303.123,-388.992,-360.05,-311.985C-413.759,-239.331,-447.185,-155.573,-460.718,-66.241C-474.329,23.603,-456.183,110.895,-437.59,199.841C-413.921,313.071,-433.522,460.636,-337.192,524.681C-241.176,588.517,-114.354,505.512,0,490.77" fill="#335e97"></path><path d="M1440 1025.949C1557.335 1039.182 1672.532 1137.2759999999998 1780.99 1090.591 1888.551 1044.292 1926.3319999999999 910.318 1965.233 799.866 2001.545 696.764 2025.033 585.446 1996.018 480.057 1968.5430000000001 380.26300000000003 1868.841 324.413 1810.748 238.745 1742.217 137.685 1737.232-21.32299999999998 1624.3890000000001-67.97299999999996 1513.069-113.99300000000005 1382.029-46.321000000000026 1281.417 19.91700000000003 1194.403 77.20299999999997 1180.368 197.40300000000002 1107.785 272.134 1028.4270000000001 353.84000000000003 886.919 369.77099999999996 840.565 473.81399999999996 791.988 582.846 803.69 719.802 861.91 824.005 918.955 926.105 1034.686 980.306 1145.098 1018.876 1239.845 1051.974 1340.27 1014.702 1440 1025.949" fill="#6591cb"></path></g><defs><mask id="SvgjsMask1012"><rect width="1440" height="560" fill="#ffffff"></rect></mask></defs></svg>